<svg xmlns="http://www.w3.org/2000/svg" viewBox="0 0 1200 680"><rect width="1200" height="680" fill="#f8f3ea"/><text x="70" y="70" fill="#8b5e34" font-family="Trebuchet MS, Segoe UI, sans-serif" font-size="22" font-weight="700" letter-spacing="4">EMBEDDED DEPLOYMENT</text><text x="70" y="118" fill="#1e1b18" font-family="Georgia, serif" font-size="30">Why real in-vehicle deployment changes model choice</text><circle cx="600" cy="350" r="125" fill="#fff6ea" stroke="#8b5e34" stroke-width="3"/><text x="600" y="334" text-anchor="middle" fill="#1e1b18" font-family="Georgia, serif" font-size="26">Fatigue</text><text x="600" y="368" text-anchor="middle" fill="#1e1b18" font-family="Georgia, serif" font-size="26">detector</text><text x="600" y="402" text-anchor="middle" fill="#62584d" font-family="Georgia, serif" font-size="19">embedded model</text><g font-family="Georgia, serif" font-size="22"><rect x="120" y="190" width="200" height="76" rx="16" fill="#fffdf8" stroke="#ceb997"/><text x="180" y="237" fill="#1e1b18">Latency</text><rect x="880" y="190" width="200" height="76" rx="16" fill="#fffdf8" stroke="#ceb997"/><text x="934" y="237" fill="#1e1b18">Power use</text><rect x="95" y="500" width="240" height="76" rx="16" fill="#fffdf8" stroke="#ceb997"/><text x="146" y="547" fill="#1e1b18">Memory budget</text><rect x="865" y="500" width="240" height="76" rx="16" fill="#fffdf8" stroke="#ceb997"/><text x="926" y="547" fill="#1e1b18">Reliability</text><rect x="480" y="540" width="240" height="76" rx="16" fill="#fffdf8" stroke="#ceb997"/><text x="534" y="587" fill="#1e1b18">Always-on use</text></g><g stroke="#8b5e34" stroke-width="4" fill="none"><line x1="320" y1="228" x2="490" y2="292"/><line x1="880" y1="228" x2="710" y2="292"/><line x1="335" y1="538" x2="495" y2="418"/><line x1="865" y1="538" x2="705" y2="418"/><line x1="600" y1="540" x2="600" y2="475"/></g><rect x="70" y="620" width="1040" height="30" rx="10" fill="#fffaf2" stroke="#ceb997"/><text x="94" y="640" fill="#62584d" font-family="Georgia, serif" font-size="17">A model that is stable and efficient in continuous use may be more valuable than a heavier offline benchmark winner.</text></svg>
