<svg xmlns="http://www.w3.org/2000/svg" viewBox="0 0 1200 760"><rect width="1200" height="760" fill="#f8f3ea"/><text x="70" y="70" fill="#8b5e34" font-family="Trebuchet MS, Segoe UI, sans-serif" font-size="22" font-weight="700" letter-spacing="4">ETHICS BY DESIGN</text><text x="70" y="118" fill="#1e1b18" font-family="Georgia, serif" font-size="30">Deployment sits inside an ethical governance field</text><circle cx="600" cy="390" r="145" fill="#fff6ea" stroke="#8b5e34" stroke-width="3"/><text x="600" y="360" text-anchor="middle" fill="#1e1b18" font-family="Georgia, serif" font-size="28">Deployment</text><text x="600" y="396" text-anchor="middle" fill="#62584d" font-family="Georgia, serif" font-size="20">model choice</text><text x="600" y="426" text-anchor="middle" fill="#62584d" font-family="Georgia, serif" font-size="20">warning policy</text><g font-family="Georgia, serif" font-size="22"><rect x="150" y="190" width="210" height="76" rx="16" fill="#fffdf8" stroke="#ceb997"/><text x="221" y="237" fill="#1e1b18">Privacy</text><rect x="840" y="190" width="210" height="76" rx="16" fill="#fffdf8" stroke="#ceb997"/><text x="908" y="237" fill="#1e1b18">Fairness</text><rect x="120" y="555" width="240" height="76" rx="16" fill="#fffdf8" stroke="#ceb997"/><text x="176" y="602" fill="#1e1b18">Explainability</text><rect x="840" y="555" width="240" height="76" rx="16" fill="#fffdf8" stroke="#ceb997"/><text x="899" y="602" fill="#1e1b18">Responsibility</text><rect x="480" y="615" width="240" height="76" rx="16" fill="#fffdf8" stroke="#ceb997"/><text x="568" y="662" fill="#1e1b18">Trust</text></g><g stroke="#8b5e34" stroke-width="4" fill="none"><line x1="360" y1="228" x2="475" y2="318"/><line x1="840" y1="228" x2="725" y2="318"/><line x1="360" y1="593" x2="475" y2="472"/><line x1="840" y1="593" x2="725" y2="472"/><line x1="600" y1="615" x2="600" y2="535"/></g><rect x="70" y="715" width="1040" height="24" rx="10" fill="#fffaf2" stroke="#ceb997"/><text x="94" y="732" fill="#62584d" font-family="Georgia, serif" font-size="16">These requirements shape sensing, inference, intervention, and organisational use together.</text></svg>
